<?xml version="1.0" encoding="UTF-8" standalone="no"?>
<svg
   version="1.1"
   id="Capa_1"
   x="0px"
   y="0px"
   width="400"
   height="119.36009"
   viewBox="40.426 179.505 400 119.36009"
   enable-background="new 40.426 179.505 202.655 60.473"
   xml:space="preserve"
   sodipodi:docname="logo-situm-white.svg"
   inkscape:version="1.1 (c68e22c387, 2021-05-23)"
   xmlns:inkscape="http://www.inkscape.org/namespaces/inkscape"
   xmlns:sodipodi="http://sodipodi.sourceforge.net/DTD/sodipodi-0.dtd"
   xmlns="http://www.w3.org/2000/svg"
   xmlns:svg="http://www.w3.org/2000/svg"
   xmlns:rdf="http://www.w3.org/1999/02/22-rdf-syntax-ns#"
   xmlns:cc="http://creativecommons.org/ns#"
   xmlns:dc="http://purl.org/dc/elements/1.1/"><metadata
   id="metadata64"><rdf:RDF><cc:Work
       rdf:about=""><dc:format>image/svg+xml</dc:format><dc:type
         rdf:resource="http://purl.org/dc/dcmitype/StillImage" /></cc:Work></rdf:RDF></metadata><defs
   id="defs62" /><sodipodi:namedview
   pagecolor="#ffffff"
   bordercolor="#666666"
   borderopacity="1"
   objecttolerance="10"
   gridtolerance="10"
   guidetolerance="10"
   inkscape:pageopacity="0"
   inkscape:pageshadow="2"
   inkscape:window-width="1920"
   inkscape:window-height="1016"
   id="namedview60"
   showgrid="false"
   inkscape:zoom="1"
   inkscape:cx="-25.5"
   inkscape:cy="109.5"
   inkscape:window-x="0"
   inkscape:window-y="0"
   inkscape:window-maximized="1"
   inkscape:current-layer="Capa_1"
   inkscape:document-rotation="0"
   fit-margin-top="0"
   fit-margin-left="0"
   fit-margin-right="0"
   fit-margin-bottom="0"
   inkscape:pagecheckerboard="0" />
<g
   id="g57"
   style="fill:#ffffff"
   transform="matrix(1.9738076,0,0,1.9738076,-39.36912,-174.80333)">
	<g
   id="g36"
   style="fill:#ffffff">
		<path
   fill="#27357D"
   d="m 114.517,228.359 h 1.143 v 7.904 h -1.143 z"
   id="path2"
   style="fill:#ffffff" />
		<path
   fill="#27357D"
   d="m 124.85,228.359 v 7.904 h -0.905 l -4.762,-5.904 v 5.904 h -1.143 v -7.904 h 0.905 l 4.761,5.905 v -5.905 z"
   id="path4"
   style="fill:#ffffff" />
		<path
   fill="#27357D"
   d="m 127.183,228.359 h 3.333 c 0.857,0 1.572,0.144 2.238,0.477 0.666,0.333 1.143,0.81 1.523,1.381 0.381,0.619 0.524,1.285 0.524,2.048 0,0.762 -0.19,1.476 -0.524,2.047 -0.381,0.619 -0.857,1.048 -1.523,1.381 -0.667,0.334 -1.381,0.477 -2.238,0.477 h -3.333 z m 3.286,6.904 c 0.619,0 1.19,-0.143 1.667,-0.381 0.476,-0.237 0.857,-0.618 1.143,-1.047 0.286,-0.429 0.381,-0.952 0.381,-1.571 0,-0.619 -0.143,-1.096 -0.381,-1.571 -0.286,-0.429 -0.619,-0.81 -1.143,-1.048 -0.476,-0.238 -1.047,-0.381 -1.667,-0.381 h -2.143 v 5.952 h 2.143 z"
   id="path6"
   style="fill:#ffffff" />
		<path
   fill="#27357D"
   d="m 137.944,235.835 c -0.619,-0.334 -1.143,-0.857 -1.523,-1.429 -0.381,-0.619 -0.572,-1.286 -0.572,-2.048 0,-0.762 0.191,-1.429 0.572,-2.047 0.381,-0.619 0.857,-1.096 1.523,-1.429 0.619,-0.334 1.381,-0.524 2.143,-0.524 0.809,0 1.523,0.19 2.143,0.524 0.619,0.333 1.143,0.81 1.523,1.429 0.381,0.618 0.523,1.285 0.523,2.095 0,0.81 -0.189,1.476 -0.523,2.095 -0.381,0.619 -0.857,1.096 -1.523,1.429 -0.667,0.333 -1.333,0.523 -2.143,0.523 -0.762,-0.094 -1.524,-0.285 -2.143,-0.618 z m 3.715,-0.905 c 0.476,-0.285 0.81,-0.619 1.095,-1.095 0.286,-0.477 0.381,-1 0.381,-1.571 0,-0.571 -0.143,-1.096 -0.381,-1.571 -0.285,-0.477 -0.619,-0.81 -1.095,-1.096 -0.476,-0.285 -1,-0.381 -1.571,-0.381 -0.572,0 -1.095,0.143 -1.571,0.381 -0.477,0.286 -0.857,0.619 -1.095,1.096 -0.286,0.476 -0.381,1 -0.381,1.571 0,0.571 0.143,1.095 0.381,1.571 0.286,0.476 0.619,0.81 1.095,1.095 0.476,0.286 1,0.381 1.571,0.381 0.571,0 1.095,-0.095 1.571,-0.381 z"
   id="path8"
   style="fill:#ffffff" />
		<path
   fill="#27357D"
   d="m 147.419,235.835 c -0.618,-0.334 -1.143,-0.857 -1.523,-1.429 -0.381,-0.619 -0.57,-1.286 -0.57,-2.048 0,-0.762 0.189,-1.429 0.57,-2.047 0.381,-0.619 0.857,-1.096 1.523,-1.429 0.619,-0.334 1.381,-0.524 2.144,-0.524 0.81,0 1.523,0.19 2.143,0.524 0.619,0.333 1.144,0.81 1.524,1.429 0.381,0.618 0.523,1.285 0.523,2.095 0,0.81 -0.191,1.476 -0.523,2.095 -0.334,0.619 -0.857,1.096 -1.524,1.429 -0.619,0.333 -1.333,0.523 -2.143,0.523 -0.763,-0.094 -1.476,-0.285 -2.144,-0.618 z m 3.715,-0.905 c 0.477,-0.285 0.81,-0.619 1.096,-1.095 0.285,-0.477 0.381,-1 0.381,-1.571 0,-0.571 -0.144,-1.096 -0.381,-1.571 -0.286,-0.477 -0.619,-0.81 -1.096,-1.096 -0.477,-0.285 -1,-0.381 -1.571,-0.381 -0.571,0 -1.095,0.143 -1.571,0.381 -0.477,0.286 -0.857,0.619 -1.096,1.096 -0.285,0.476 -0.381,1 -0.381,1.571 0,0.571 0.143,1.095 0.381,1.571 0.286,0.476 0.619,0.81 1.096,1.095 0.477,0.286 1,0.381 1.571,0.381 0.571,0 1.143,-0.095 1.571,-0.381 z"
   id="path10"
   style="fill:#ffffff" />
		<path
   fill="#27357D"
   d="m 160.8,236.263 -1.715,-2.428 c -0.189,0 -0.381,0 -0.476,0 h -1.952 v 2.428 h -1.143 v -7.904 h 3.095 c 1.048,0 1.81,0.238 2.429,0.715 0.571,0.476 0.904,1.143 0.904,2 0,0.619 -0.143,1.143 -0.428,1.571 -0.286,0.429 -0.715,0.762 -1.286,0.952 l 1.856,2.666 z m -0.619,-3.857 c 0.381,-0.286 0.572,-0.762 0.572,-1.333 0,-0.571 -0.191,-1 -0.572,-1.334 -0.381,-0.333 -0.904,-0.476 -1.619,-0.476 h -1.904 v 3.571 h 1.904 c 0.715,0.049 1.238,-0.094 1.619,-0.428 z"
   id="path12"
   style="fill:#ffffff" />
		<path
   fill="#27357D"
   d="m 172.276,229.073 c 0.571,0.476 0.905,1.143 0.905,2 0,0.856 -0.286,1.523 -0.905,2 -0.619,0.476 -1.381,0.714 -2.429,0.714 h -1.952 v 2.381 h -1.143 v -7.81 h 3.095 c 1.048,0.001 1.81,0.239 2.429,0.715 z m -0.81,3.333 c 0.381,-0.286 0.571,-0.762 0.571,-1.333 0,-0.571 -0.19,-1 -0.571,-1.334 -0.381,-0.333 -0.904,-0.476 -1.619,-0.476 h -1.904 v 3.523 h 1.904 c 0.667,0.097 1.238,-0.046 1.619,-0.38 z"
   id="path14"
   style="fill:#ffffff" />
		<path
   fill="#27357D"
   d="m 176.324,235.835 c -0.619,-0.334 -1.143,-0.857 -1.524,-1.429 -0.381,-0.619 -0.571,-1.286 -0.571,-2.048 0,-0.762 0.19,-1.429 0.571,-2.047 0.382,-0.619 0.857,-1.096 1.524,-1.429 0.619,-0.334 1.381,-0.524 2.143,-0.524 0.809,0 1.523,0.19 2.143,0.524 0.619,0.333 1.143,0.81 1.523,1.429 0.381,0.618 0.523,1.285 0.523,2.095 0,0.81 -0.189,1.476 -0.523,2.095 -0.381,0.619 -0.857,1.096 -1.523,1.429 -0.619,0.333 -1.334,0.523 -2.143,0.523 -0.762,-0.094 -1.477,-0.285 -2.143,-0.618 z m 3.713,-0.905 c 0.477,-0.285 0.811,-0.619 1.096,-1.095 0.285,-0.477 0.381,-1 0.381,-1.571 0,-0.571 -0.143,-1.096 -0.381,-1.571 -0.238,-0.477 -0.619,-0.81 -1.096,-1.096 -0.476,-0.285 -0.999,-0.381 -1.57,-0.381 -0.572,0 -1.096,0.143 -1.572,0.381 -0.476,0.286 -0.856,0.619 -1.095,1.096 -0.237,0.476 -0.381,1 -0.381,1.571 0,0.571 0.144,1.095 0.381,1.571 0.286,0.476 0.619,0.81 1.095,1.095 0.477,0.286 1,0.381 1.572,0.381 0.618,0 1.142,-0.095 1.57,-0.381 z"
   id="path16"
   style="fill:#ffffff" />
		<path
   fill="#27357D"
   d="m 184.99,236.073 c -0.572,-0.19 -1,-0.428 -1.286,-0.714 l 0.429,-0.857 c 0.285,0.286 0.666,0.477 1.143,0.667 0.477,0.19 0.953,0.238 1.429,0.238 0.667,0 1.143,-0.096 1.476,-0.334 0.334,-0.237 0.477,-0.523 0.477,-0.904 0,-0.286 -0.096,-0.477 -0.285,-0.667 -0.191,-0.19 -0.381,-0.285 -0.667,-0.381 -0.238,-0.095 -0.619,-0.19 -1.095,-0.285 -0.572,-0.144 -1.096,-0.286 -1.43,-0.429 -0.381,-0.143 -0.666,-0.381 -0.951,-0.667 -0.286,-0.285 -0.381,-0.714 -0.381,-1.19 0,-0.428 0.095,-0.81 0.332,-1.143 0.238,-0.333 0.572,-0.619 1,-0.81 0.43,-0.19 1,-0.285 1.668,-0.285 0.476,0 0.904,0.047 1.381,0.19 0.428,0.143 0.856,0.285 1.143,0.523 l -0.381,0.904 c -0.334,-0.19 -0.667,-0.381 -1.049,-0.476 -0.381,-0.096 -0.762,-0.143 -1.094,-0.143 -0.619,0 -1.144,0.095 -1.43,0.333 -0.333,0.238 -0.476,0.523 -0.476,0.904 0,0.286 0.095,0.477 0.286,0.667 0.189,0.19 0.381,0.286 0.666,0.381 0.285,0.096 0.619,0.19 1.096,0.286 0.57,0.143 1.095,0.285 1.428,0.428 0.381,0.144 0.667,0.381 0.953,0.667 0.238,0.286 0.381,0.667 0.381,1.19 0,0.429 -0.096,0.81 -0.334,1.143 -0.238,0.334 -0.571,0.619 -1.047,0.81 -0.477,0.19 -1.048,0.286 -1.715,0.286 -0.525,-0.046 -1.096,-0.142 -1.667,-0.332 z"
   id="path18"
   style="fill:#ffffff" />
		<path
   fill="#27357D"
   d="m 191.417,228.359 h 1.143 v 7.904 h -1.143 z"
   id="path20"
   style="fill:#ffffff" />
		<path
   fill="#27357D"
   d="m 196.513,229.312 h -2.715 v -0.953 h 6.523 v 1 h -2.714 v 6.904 h -1.095 v -6.951 z"
   id="path22"
   style="fill:#ffffff" />
		<path
   fill="#27357D"
   d="m 201.56,228.359 h 1.143 v 7.904 h -1.143 z"
   id="path24"
   style="fill:#ffffff" />
		<path
   fill="#27357D"
   d="m 206.464,235.835 c -0.619,-0.334 -1.143,-0.857 -1.523,-1.429 -0.381,-0.619 -0.572,-1.286 -0.572,-2.048 0,-0.762 0.191,-1.429 0.572,-2.047 0.381,-0.619 0.857,-1.096 1.523,-1.429 0.619,-0.334 1.381,-0.524 2.143,-0.524 0.81,0 1.523,0.19 2.143,0.524 0.619,0.333 1.143,0.81 1.523,1.429 0.381,0.618 0.524,1.285 0.524,2.095 0,0.81 -0.19,1.476 -0.524,2.095 -0.381,0.619 -0.856,1.096 -1.523,1.429 -0.619,0.333 -1.333,0.523 -2.143,0.523 -0.762,-0.094 -1.477,-0.285 -2.143,-0.618 z m 3.714,-0.905 c 0.477,-0.285 0.81,-0.619 1.095,-1.095 0.286,-0.477 0.381,-1 0.381,-1.571 0,-0.571 -0.143,-1.096 -0.381,-1.571 -0.237,-0.477 -0.618,-0.81 -1.095,-1.096 -0.476,-0.285 -0.999,-0.381 -1.571,-0.381 -0.571,0 -1.096,0.143 -1.571,0.381 -0.476,0.286 -0.856,0.619 -1.095,1.096 -0.238,0.476 -0.381,1 -0.381,1.571 0,0.571 0.143,1.095 0.381,1.571 0.285,0.476 0.619,0.81 1.095,1.095 0.476,0.286 1,0.381 1.571,0.381 0.619,0 1.143,-0.095 1.571,-0.381 z"
   id="path26"
   style="fill:#ffffff" />
		<path
   fill="#27357D"
   d="m 221.369,228.359 v 7.904 h -0.905 l -4.761,-5.904 v 5.904 h -1.144 v -7.904 h 0.905 l 4.762,5.905 v -5.905 z"
   id="path28"
   style="fill:#ffffff" />
		<path
   fill="#27357D"
   d="m 223.702,228.359 h 1.143 v 7.904 h -1.143 z"
   id="path30"
   style="fill:#ffffff" />
		<path
   fill="#27357D"
   d="m 234.035,228.359 v 7.904 h -0.905 l -4.762,-5.904 v 5.904 h -1.143 v -7.904 h 0.905 l 4.762,5.905 v -5.905 z"
   id="path32"
   style="fill:#ffffff" />
		<path
   fill="#27357D"
   d="m 241.891,232.264 h 1.095 v 3.095 c -0.381,0.333 -0.857,0.571 -1.381,0.762 -0.524,0.191 -1.047,0.238 -1.619,0.238 -0.809,0 -1.523,-0.19 -2.143,-0.523 -0.619,-0.334 -1.143,-0.81 -1.523,-1.429 -0.38,-0.619 -0.571,-1.286 -0.571,-2.096 0,-0.809 0.19,-1.476 0.571,-2.095 0.381,-0.619 0.857,-1.095 1.523,-1.429 0.667,-0.333 1.381,-0.523 2.19,-0.523 0.619,0 1.19,0.095 1.714,0.333 0.524,0.19 0.953,0.524 1.334,0.905 l -0.715,0.714 c -0.619,-0.619 -1.381,-0.904 -2.285,-0.904 -0.619,0 -1.143,0.143 -1.619,0.381 -0.477,0.237 -0.857,0.619 -1.143,1.095 -0.285,0.477 -0.429,1 -0.429,1.571 0,0.571 0.144,1.096 0.429,1.571 0.285,0.477 0.666,0.81 1.143,1.096 0.477,0.285 1,0.381 1.619,0.381 0.715,0 1.333,-0.19 1.857,-0.524 v -2.618 h -0.047 z"
   id="path34"
   style="fill:#ffffff" />
	</g>
	<path
   fill="#27357D"
   d="m 138.325,211.455 c 0,3.952 -3.857,7 -11.285,7 -5.19,0 -9.667,-1.715 -12.714,-4.381 l 2.429,-2.667 c 2.476,2.143 5.904,3.523 10.428,3.523 3.905,0 6.904,-1 6.904,-3.143 0,-2.143 -2.762,-2.762 -7.714,-3.143 -5.761,-0.429 -11.237,-1.762 -11.237,-6.285 0,-4.143 4.238,-6.666 11.333,-6.666 4.333,0 8.381,1.523 10.857,3.333 l -2.333,2.952 c -2.047,-1.571 -4.857,-2.762 -8.714,-2.762 -2.857,0 -6.809,0.571 -6.809,2.904 0,2.143 3.333,2.523 7.667,2.81 6.427,0.477 11.188,2.24 11.188,6.525 z"
   id="path38"
   style="fill:#ffffff" />
	<path
   fill="#27357D"
   d="m 147.896,217.646 h -4.476 v -21.142 h 4.476 z"
   id="path40"
   style="fill:#ffffff" />
	<path
   fill="#27357D"
   d="m 167.181,216.455 c -1.715,1.143 -4.096,1.952 -6.523,1.952 -4.143,0 -7.428,-2.19 -7.428,-6.619 v -11.714 0 -3.57 0 -4.905 h 4.523 v 4.905 h 9.236 v 3.57 h -9.236 v 11 c 0,2.333 1.809,3.523 3.999,3.523 1.571,0 2.952,-0.571 4.19,-1.285 z"
   id="path42"
   style="fill:#ffffff" />
	<path
   fill="#27357D"
   d="m 195.037,196.504 v 21.142 h -4.523 v -4.096 c -1.857,3 -5.334,4.857 -9.666,4.857 -6.429,0 -9.666,-4.143 -9.666,-9.856 v -12.095 h 4.476 v 11.761 c 0,4.143 2.143,6.381 6.333,6.381 3.619,0 6.666,-1.714 8.476,-5.19 v -12.999 h 4.571 v 0.095 z"
   id="path44"
   style="fill:#ffffff" />
	<path
   fill="#27357D"
   d="m 242.748,205.503 v 12.143 h -4.428 v -11.904 c 0,-3.904 -1.857,-6.285 -6,-6.285 -3.57,0 -6.189,1.856 -7.762,5.189 v 0.81 9 l 0.048,3.143 h -4.476 v -11.904 c 0,-3.904 -1.857,-6.285 -6,-6.285 -3.57,0 -6.095,1.81 -7.666,5.047 v 13.095 h -4.523 V 196.41 h 4.523 v 4.095 c 1.666,-2.952 5,-4.856 9.047,-4.856 4.762,0 7.428,2.381 8.523,5.856 1.523,-3.571 5.19,-5.856 9.666,-5.856 6.334,0.092 9.048,4.379 9.048,9.854 z"
   id="path46"
   style="fill:#ffffff" />
	<circle
   fill="#27357D"
   cx="145.658"
   cy="188.742"
   r="2.8570001"
   id="circle48"
   style="fill:#ffffff" />
	<g
   id="g7301_14_"
   style="fill:#ffffff">
		<path
   id="path7303_14_"
   opacity="0.67"
   fill="#27357D"
   enable-background="new    "
   d="m 83.9,196.504 -11.713,31.95 -2.476,-17.713 -17.713,-2.477 z"
   style="fill:#ffffff" />
		<path
   id="path7305_14_"
   fill="#27357D"
   d="m 83.9,196.504 -11.713,31.95 -2.476,-17.713 v 0 z"
   style="fill:#ffffff" />
	</g>
	<g
   id="g7319_35_"
   style="fill:#ffffff">
		<path
   id="path7321_35_"
   fill="#27357D"
   d="m 70.663,179.505 c -16.713,0 -30.236,13.522 -30.236,30.236 0,16.713 13.523,30.236 30.236,30.236 16.713,0 30.236,-13.523 30.236,-30.236 0,-16.713 -13.523,-30.236 -30.236,-30.236 z m 0,57.615 c -15.094,0 -27.332,-12.237 -27.332,-27.332 0,-15.094 12.237,-27.331 27.332,-27.331 15.095,0 27.332,12.237 27.332,27.331 -0.001,15.095 -12.238,27.332 -27.332,27.332 z"
   style="fill:#ffffff" />
	</g>
	<g
   id="g7319_34_"
   style="fill:#ffffff">
	</g>
</g>
</svg>
